<svg width="24" height="24" viewBox="0 0 24 24" fill="none" xmlns="http://www.w3.org/2000/svg">
<path fill-rule="evenodd" clip-rule="evenodd" d="M12 24C10.34 24 8.78 23.685 7.32 23.055C5.86 22.425 4.59 21.57 3.51 20.49C2.43 19.41 1.575 18.14 0.945 16.68C0.315 15.22 0 13.66 0 12C0 10.34 0.315 8.78 0.945 7.32C1.575 5.86 2.43 4.59 3.51 3.51C4.59 2.43 5.86 1.575 7.32 0.945C8.78 0.315 10.34 0 12 0C13.66 0 15.22 0.315 16.68 0.945C18.14 1.575 19.41 2.43 20.49 3.51C21.57 4.59 22.425 5.86 23.055 7.32C23.685 8.78 24 10.34 24 12C24 13.66 23.685 15.22 23.055 16.68C22.425 18.14 21.57 19.41 20.49 20.49C19.41 21.57 18.14 22.425 16.68 23.055C15.22 23.685 13.66 24 12 24ZM13.2 11.52V7.2C13.2 6.86 13.085 6.575 12.855 6.345C12.625 6.115 12.34 6 12 6C11.66 6 11.375 6.115 11.145 6.345C10.915 6.575 10.8 6.86 10.8 7.2V11.97C10.8 12.13 10.83 12.285 10.89 12.435C10.95 12.585 11.04 12.72 11.16 12.84L15.12 16.8C15.34 17.02 15.62 17.13 15.96 17.13C16.3 17.13 16.58 17.02 16.8 16.8C17.02 16.58 17.13 16.3 17.13 15.96C17.13 15.62 17.02 15.34 16.8 15.12L13.2 11.52ZM18.7954 18.7934C16.9254 20.6634 14.6604 21.5984 12.0004 21.5984C9.34039 21.5984 7.07539 20.6634 5.20539 18.7934C3.33539 16.9234 2.40039 14.6584 2.40039 11.9984C2.40039 9.33844 3.33539 7.07344 5.20539 5.20344C7.07539 3.33344 9.34039 2.39844 12.0004 2.39844C14.6604 2.39844 16.9254 3.33344 18.7954 5.20344C20.6654 7.07344 21.6004 9.33844 21.6004 11.9984C21.6004 14.6584 20.6654 16.9234 18.7954 18.7934Z" fill="black"/>
</svg>
