<svg width="20" height="24" viewBox="0 0 20 24" fill="none" xmlns="http://www.w3.org/2000/svg">
<path fill-rule="evenodd" clip-rule="evenodd" d="M4.2 24C3.04 24 2.05 23.59 1.23 22.77C0.41 21.95 0 20.96 0 19.8V4.2C0 3.04 0.41 2.05 1.23 1.23C2.05 0.41 3.04 0 4.2 0H16.8C17.46 0 18.025 0.235 18.495 0.705C18.965 1.175 19.2 1.74 19.2 2.4V17.43C19.2 17.59 19.135 17.735 19.005 17.865C18.875 17.995 18.64 18.14 18.3 18.3C18.02 18.44 17.8 18.64 17.64 18.9C17.48 19.16 17.4 19.46 17.4 19.8C17.4 20.14 17.48 20.445 17.64 20.715C17.8 20.985 18.02 21.18 18.3 21.3C18.58 21.42 18.8 21.585 18.96 21.795C19.12 22.005 19.2 22.23 19.2 22.47V22.77C19.2 23.11 19.085 23.4 18.855 23.64C18.625 23.88 18.34 24 18 24H4.2ZM2.44477 15.9666C2.711 15.838 2.98621 15.7453 3.27039 15.6884C3.57039 15.6284 3.88039 15.5984 4.20039 15.5984H4.80039V2.39844H4.20039C3.70039 2.39844 3.27539 2.57344 2.92539 2.92344C2.67715 3.17168 2.51694 3.45766 2.44477 3.78136C2.41518 3.91405 2.40039 4.05307 2.40039 4.19844V15.9884C2.41515 15.9811 2.42995 15.9738 2.44477 15.9666ZM7.2002 15.5984H16.8002V2.39844H7.2002V15.5984ZM15.3904 21.6H4.20039C3.68039 21.6 3.25039 21.43 2.91039 21.09C2.57039 20.75 2.40039 20.32 2.40039 19.8C2.40039 19.3 2.57039 18.875 2.91039 18.525C3.25039 18.175 3.68039 18 4.20039 18H15.3904C15.2504 18.28 15.1504 18.57 15.0904 18.87C15.0304 19.17 15.0004 19.48 15.0004 19.8C15.0004 20.14 15.0354 20.455 15.1054 20.745C15.1754 21.035 15.2704 21.32 15.3904 21.6Z" fill="black"/>
</svg>
