<svg width="22" height="20" viewBox="0 0 22 20" fill="none" xmlns="http://www.w3.org/2000/svg">
<path fill-rule="evenodd" clip-rule="evenodd" d="M12.5125 8.93779C12.8079 9.05836 13.1185 9.11864 13.4444 9.11864C13.7704 9.11864 14.0861 9.05836 14.3917 8.93779C14.6972 8.81722 14.962 8.64641 15.1861 8.42537L21.6333 2.06535C21.8574 1.84431 21.9745 1.568 21.9847 1.23644C21.9949 0.904871 21.888 0.618519 21.6639 0.377381C21.4194 0.136243 21.1292 0.0106503 20.7931 0.000602846C20.4569 -0.00944458 20.1667 0.106101 19.9222 0.347239L13.4444 6.7374L10.2972 3.63275C10.0731 3.39161 9.80833 3.21578 9.50278 3.10526C9.19722 2.99474 8.88148 2.93947 8.55556 2.93947C8.22963 2.93947 7.91898 2.99474 7.62361 3.10526C7.32824 3.21578 7.05833 3.39161 6.81389 3.63275L0.366667 9.99277C0.142593 10.2138 0.025463 10.4901 0.0152778 10.8217C0.00509259 11.1532 0.112037 11.4396 0.336111 11.6807C0.580556 11.9219 0.870833 12.0475 1.20694 12.0575C1.54306 12.0676 1.83333 11.952 2.07778 11.7109L8.55556 5.32071L11.7028 8.42537C11.9472 8.64641 12.2171 8.81722 12.5125 8.93779ZM20.7779 20.0009C20.4316 20.0009 20.1413 19.8853 19.9071 19.6542C19.6728 19.4232 19.5557 19.1368 19.5557 18.7952V7.94397C19.5557 7.60236 19.6728 7.31601 19.9071 7.08492C20.1413 6.85383 20.4316 6.73828 20.7779 6.73828C21.1242 6.73828 21.4145 6.85383 21.6487 7.08492C21.883 7.31601 22.0001 7.60236 22.0001 7.94397V18.7952C22.0001 19.1368 21.883 19.4232 21.6487 19.6542C21.4145 19.8853 21.1242 20.0009 20.7779 20.0009ZM5.24006 19.6531C5.47432 19.8842 5.7646 19.9997 6.11089 19.9997C6.45719 19.9997 6.74747 19.8842 6.98173 19.6531C7.21599 19.422 7.33312 19.1356 7.33312 18.794V12.1627C7.33312 11.8211 7.21599 11.5348 6.98173 11.3037C6.74747 11.0726 6.45719 10.957 6.11089 10.957C5.7646 10.957 5.47432 11.0726 5.24006 11.3037C5.0058 11.5348 4.88867 11.8211 4.88867 12.1627V18.794C4.88867 19.1356 5.0058 19.422 5.24006 19.6531ZM0.351389 19.6534C0.585648 19.8845 0.875926 20 1.22222 20C1.56852 20 1.8588 19.8845 2.09306 19.6534C2.32731 19.4223 2.44444 19.1359 2.44444 18.7943V17.5886C2.44444 17.247 2.32731 16.9607 2.09306 16.7296C1.8588 16.4985 1.56852 16.3829 1.22222 16.3829C0.875926 16.3829 0.585648 16.4985 0.351389 16.7296C0.11713 16.9607 0 17.247 0 17.5886V18.7943C0 19.1359 0.11713 19.4223 0.351389 19.6534ZM10.9996 19.9985C10.6533 19.9985 10.363 19.8829 10.1287 19.6519C9.89447 19.4208 9.77734 19.1344 9.77734 18.7928V14.5729C9.77734 14.2313 9.89447 13.9449 10.1287 13.7138C10.363 13.4827 10.6533 13.3672 10.9996 13.3672C11.3459 13.3672 11.6361 13.4827 11.8704 13.7138C12.1047 13.9449 12.2218 14.2313 12.2218 14.5729V18.7928C12.2218 19.1344 12.1047 19.4208 11.8704 19.6519C11.6361 19.8829 11.3459 19.9985 10.9996 19.9985ZM15.0184 19.6518C15.2526 19.8829 15.5429 19.9984 15.8892 19.9984C16.2355 19.9984 16.5258 19.8829 16.76 19.6518C16.9943 19.4207 17.1114 19.1344 17.1114 18.7927V12.7643C17.1114 12.4227 16.9943 12.1363 16.76 11.9052C16.5258 11.6741 16.2355 11.5586 15.8892 11.5586C15.5429 11.5586 15.2526 11.6741 15.0184 11.9052C14.7841 12.1363 14.667 12.4227 14.667 12.7643V18.7927C14.667 19.1344 14.7841 19.4207 15.0184 19.6518Z" fill="black"/>
</svg>
