<svg width="24" height="24" viewBox="0 0 24 24" fill="none" xmlns="http://www.w3.org/2000/svg">
<path fill-rule="evenodd" clip-rule="evenodd" d="M23.28 14.7L14.7 23.28C14.46 23.52 14.19 23.7 13.89 23.82C13.59 23.94 13.29 24 12.99 24C12.69 24 12.39 23.94 12.09 23.82C11.79 23.7 11.52 23.52 11.28 23.28L0.69 12.69C0.47 12.47 0.3 12.215 0.18 11.925C0.06 11.635 0 11.33 0 11.01V2.4C0 1.74 0.235 1.175 0.705 0.705C1.175 0.235 1.74 0 2.4 0H11.01C11.33 0 11.64 0.065 11.94 0.195C12.24 0.325 12.5 0.5 12.72 0.72L23.28 11.31C23.52 11.55 23.695 11.82 23.805 12.12C23.915 12.42 23.97 12.72 23.97 13.02C23.97 13.32 23.915 13.615 23.805 13.905C23.695 14.195 23.52 14.46 23.28 14.7ZM12.9904 21.5984L21.5704 13.0184L10.9804 2.39844H2.40039V10.9784L12.9904 21.5984ZM6.67461 6.67656C6.32461 7.02656 5.89961 7.20156 5.39961 7.20156C4.89961 7.20156 4.47461 7.02656 4.12461 6.67656C3.77461 6.32656 3.59961 5.90156 3.59961 5.40156C3.59961 4.90156 3.77461 4.47656 4.12461 4.12656C4.47461 3.77656 4.89961 3.60156 5.39961 3.60156C5.89961 3.60156 6.32461 3.77656 6.67461 4.12656C7.02461 4.47656 7.19961 4.90156 7.19961 5.40156C7.19961 5.90156 7.02461 6.32656 6.67461 6.67656Z" fill="black"/>
</svg>
