<svg width="14" height="26" viewBox="0 0 14 26" fill="none" xmlns="http://www.w3.org/2000/svg">
<path d="M6.92099 25C6.54321 25 6.22654 24.8722 5.97099 24.6167C5.71543 24.3611 5.58765 24.0444 5.58765 23.6667V22.1333C4.58765 21.9111 3.70988 21.5222 2.95432 20.9667C2.19877 20.4111 1.58765 19.6333 1.12099 18.6333C0.965432 18.3222 0.959877 17.9944 1.10432 17.65C1.24877 17.3056 1.50988 17.0556 1.88765 16.9C2.19877 16.7667 2.52099 16.7722 2.85432 16.9167C3.18765 17.0611 3.44321 17.3 3.62099 17.6333C3.99877 18.3 4.47654 18.8056 5.05432 19.15C5.6321 19.4944 6.34321 19.6667 7.18765 19.6667C8.09877 19.6667 8.87099 19.4611 9.50432 19.05C10.1377 18.6389 10.4543 18 10.4543 17.1333C10.4543 16.3556 10.2099 15.7389 9.72099 15.2833C9.2321 14.8278 8.09877 14.3111 6.32099 13.7333C4.40988 13.1333 3.09877 12.4167 2.38765 11.5833C1.67654 10.75 1.32099 9.73333 1.32099 8.53333C1.32099 7.08889 1.78765 5.96667 2.72099 5.16667C3.65432 4.36667 4.60988 3.91111 5.58765 3.8V2.33333C5.58765 1.95556 5.71543 1.63889 5.97099 1.38333C6.22654 1.12778 6.54321 1 6.92099 1C7.29877 1 7.61543 1.12778 7.87099 1.38333C8.12654 1.63889 8.25432 1.95556 8.25432 2.33333V3.8C9.09877 3.93333 9.8321 4.20556 10.4543 4.61667C11.0765 5.02778 11.5877 5.53333 11.9877 6.13333C12.1877 6.42222 12.2265 6.74444 12.1043 7.1C11.9821 7.45556 11.7321 7.71111 11.3543 7.86667C11.0432 8 10.721 8.00556 10.3877 7.88333C10.0543 7.76111 9.74321 7.54444 9.45432 7.23333C9.16543 6.92222 8.82654 6.68333 8.43765 6.51667C8.04877 6.35 7.56543 6.26667 6.98765 6.26667C6.00988 6.26667 5.26543 6.48333 4.75432 6.91667C4.24321 7.35 3.98765 7.88889 3.98765 8.53333C3.98765 9.26667 4.32099 9.84444 4.98765 10.2667C5.65432 10.6889 6.80988 11.1333 8.45432 11.6C9.98765 12.0444 11.1488 12.75 11.9377 13.7167C12.7265 14.6833 13.121 15.8 13.121 17.0667C13.121 18.6444 12.6543 19.8444 11.721 20.6667C10.7877 21.4889 9.6321 22 8.25432 22.2V23.6667C8.25432 24.0444 8.12654 24.3611 7.87099 24.6167C7.61543 24.8722 7.29877 25 6.92099 25Z" fill="#1C57FD" stroke="#1B57FD"/>
</svg>
