<svg width="13" height="24" viewBox="0 0 13 24" fill="none" xmlns="http://www.w3.org/2000/svg">
<path d="M5.92099 24C5.54321 24 5.22654 23.8722 4.97099 23.6167C4.71543 23.3611 4.58765 23.0444 4.58765 22.6667V21.1333C3.58765 20.9111 2.70988 20.5222 1.95432 19.9667C1.19877 19.4111 0.587654 18.6333 0.120988 17.6333C-0.0345679 17.3222 -0.0401235 16.9944 0.104321 16.65C0.248765 16.3056 0.509876 16.0556 0.887654 15.9C1.19877 15.7667 1.52099 15.7722 1.85432 15.9167C2.18765 16.0611 2.44321 16.3 2.62099 16.6333C2.99877 17.3 3.47654 17.8056 4.05432 18.15C4.6321 18.4944 5.34321 18.6667 6.18765 18.6667C7.09877 18.6667 7.87099 18.4611 8.50432 18.05C9.13765 17.6389 9.45432 17 9.45432 16.1333C9.45432 15.3556 9.20988 14.7389 8.72099 14.2833C8.2321 13.8278 7.09877 13.3111 5.32099 12.7333C3.40988 12.1333 2.09877 11.4167 1.38765 10.5833C0.676543 9.75 0.320988 8.73333 0.320988 7.53333C0.320988 6.08889 0.787654 4.96667 1.72099 4.16667C2.65432 3.36667 3.60988 2.91111 4.58765 2.8V1.33333C4.58765 0.955556 4.71543 0.638889 4.97099 0.383333C5.22654 0.127778 5.54321 0 5.92099 0C6.29877 0 6.61543 0.127778 6.87099 0.383333C7.12654 0.638889 7.25432 0.955556 7.25432 1.33333V2.8C8.09877 2.93333 8.8321 3.20556 9.45432 3.61667C10.0765 4.02778 10.5877 4.53333 10.9877 5.13333C11.1877 5.42222 11.2265 5.74444 11.1043 6.1C10.9821 6.45556 10.7321 6.71111 10.3543 6.86667C10.0432 7 9.72099 7.00556 9.38765 6.88333C9.05432 6.76111 8.74321 6.54444 8.45432 6.23333C8.16543 5.92222 7.82654 5.68333 7.43765 5.51667C7.04877 5.35 6.56543 5.26667 5.98765 5.26667C5.00988 5.26667 4.26543 5.48333 3.75432 5.91667C3.24321 6.35 2.98765 6.88889 2.98765 7.53333C2.98765 8.26667 3.32099 8.84444 3.98765 9.26667C4.65432 9.68889 5.80988 10.1333 7.45432 10.6C8.98765 11.0444 10.1488 11.75 10.9377 12.7167C11.7265 13.6833 12.121 14.8 12.121 16.0667C12.121 17.6444 11.6543 18.8444 10.721 19.6667C9.78765 20.4889 8.6321 21 7.25432 21.2V22.6667C7.25432 23.0444 7.12654 23.3611 6.87099 23.6167C6.61543 23.8722 6.29877 24 5.92099 24Z" fill="#9EA0A6"/>
</svg>
