<svg width="25" height="23" viewBox="0 0 25 23" fill="none" xmlns="http://www.w3.org/2000/svg">
<path fill-rule="evenodd" clip-rule="evenodd" d="M0.711184 22.2888C1.18531 22.7629 1.75526 23 2.42105 23H21.7895C22.4553 23 23.0252 22.7629 23.4993 22.2888C23.9735 21.8147 24.2105 21.2447 24.2105 20.5789V7.26316C24.2105 6.59737 23.9735 6.02741 23.4993 5.55329C23.0252 5.07917 22.4553 4.84211 21.7895 4.84211H16.9474V2.42105C16.9474 1.75526 16.7103 1.18531 16.2362 0.711184C15.7621 0.237061 15.1921 0 14.5263 0H9.68421C9.01842 0 8.44846 0.237061 7.97434 0.711184C7.50022 1.18531 7.26316 1.75526 7.26316 2.42105V4.84211H2.42105C1.75526 4.84211 1.18531 5.07917 0.711184 5.55329C0.237061 6.02741 0 6.59737 0 7.26316V20.5789C0 21.2447 0.237061 21.8147 0.711184 22.2888ZM2.46678 20.5775H2.4209V7.26172H2.46678H21.7893V20.5775H2.46678ZM9.68457 4.84293H14.5267V2.42188H9.68457V4.84293Z" fill="black"/>
</svg>
