<svg width="22" height="25" viewBox="0 0 22 25" fill="none" xmlns="http://www.w3.org/2000/svg">
<path fill-rule="evenodd" clip-rule="evenodd" d="M0.705 23.6622C1.175 24.1322 1.74 24.3672 2.4 24.3672H19.2C19.86 24.3672 20.425 24.1322 20.895 23.6622C21.365 23.1922 21.6 22.6272 21.6 21.9672V5.16719C21.6 4.50719 21.365 3.94219 20.895 3.47219C20.425 3.00219 19.86 2.76719 19.2 2.76719H18V1.56719C18 1.22719 17.885 0.942187 17.655 0.712187C17.425 0.482187 17.14 0.367188 16.8 0.367188C16.46 0.367188 16.175 0.482187 15.945 0.712187C15.715 0.942187 15.6 1.22719 15.6 1.56719V2.76719H6V1.56719C6 1.22719 5.885 0.942187 5.655 0.712187C5.425 0.482187 5.14 0.367188 4.8 0.367188C4.46 0.367188 4.175 0.482187 3.945 0.712187C3.715 0.942187 3.6 1.22719 3.6 1.56719V2.76719H2.4C1.74 2.76719 1.175 3.00219 0.705 3.47219C0.235 3.94219 0 4.50719 0 5.16719V21.9672C0 22.6272 0.235 23.1922 0.705 23.6622ZM19.2004 21.9688H2.40039V9.96875H19.2004V21.9688ZM2.44477 7.56797H19.2004V5.16797H2.44477H2.40039V7.56797H2.44477ZM10.7996 14.7672C10.4596 14.7672 10.1746 14.6522 9.94461 14.4222C9.71461 14.1922 9.59961 13.9072 9.59961 13.5672C9.59961 13.2272 9.71461 12.9422 9.94461 12.7122C10.1746 12.4822 10.4596 12.3672 10.7996 12.3672C11.1396 12.3672 11.4246 12.4822 11.6546 12.7122C11.8846 12.9422 11.9996 13.2272 11.9996 13.5672C11.9996 13.9072 11.8846 14.1922 11.6546 14.4222C11.4246 14.6522 11.1396 14.7672 10.7996 14.7672ZM5.145 14.4222C5.375 14.6522 5.66 14.7672 6 14.7672C6.34 14.7672 6.625 14.6522 6.855 14.4222C7.085 14.1922 7.2 13.9072 7.2 13.5672C7.2 13.2272 7.085 12.9422 6.855 12.7122C6.625 12.4822 6.34 12.3672 6 12.3672C5.66 12.3672 5.375 12.4822 5.145 12.7122C4.915 12.9422 4.8 13.2272 4.8 13.5672C4.8 13.9072 4.915 14.1922 5.145 14.4222ZM15.6004 14.7672C15.2604 14.7672 14.9754 14.6522 14.7454 14.4222C14.5154 14.1922 14.4004 13.9072 14.4004 13.5672C14.4004 13.2272 14.5154 12.9422 14.7454 12.7122C14.9754 12.4822 15.2604 12.3672 15.6004 12.3672C15.9404 12.3672 16.2254 12.4822 16.4554 12.7122C16.6854 12.9422 16.8004 13.2272 16.8004 13.5672C16.8004 13.9072 16.6854 14.1922 16.4554 14.4222C16.2254 14.6522 15.9404 14.7672 15.6004 14.7672ZM9.94461 19.223C10.1746 19.453 10.4596 19.568 10.7996 19.568C11.1396 19.568 11.4246 19.453 11.6546 19.223C11.8846 18.993 11.9996 18.708 11.9996 18.368C11.9996 18.028 11.8846 17.743 11.6546 17.513C11.4246 17.283 11.1396 17.168 10.7996 17.168C10.4596 17.168 10.1746 17.283 9.94461 17.513C9.71461 17.743 9.59961 18.028 9.59961 18.368C9.59961 18.708 9.71461 18.993 9.94461 19.223ZM5.9998 19.568C5.6598 19.568 5.3748 19.453 5.1448 19.223C4.9148 18.993 4.7998 18.708 4.7998 18.368C4.7998 18.028 4.9148 17.743 5.1448 17.513C5.3748 17.283 5.6598 17.168 5.9998 17.168C6.3398 17.168 6.6248 17.283 6.8548 17.513C7.0848 17.743 7.1998 18.028 7.1998 18.368C7.1998 18.708 7.0848 18.993 6.8548 19.223C6.6248 19.453 6.3398 19.568 5.9998 19.568ZM14.7454 19.223C14.9754 19.453 15.2604 19.568 15.6004 19.568C15.9404 19.568 16.2254 19.453 16.4554 19.223C16.6854 18.993 16.8004 18.708 16.8004 18.368C16.8004 18.028 16.6854 17.743 16.4554 17.513C16.2254 17.283 15.9404 17.168 15.6004 17.168C15.2604 17.168 14.9754 17.283 14.7454 17.513C14.5154 17.743 14.4004 18.028 14.4004 18.368C14.4004 18.708 14.5154 18.993 14.7454 19.223Z" fill="black"/>
</svg>
