<svg width="22" height="22" viewBox="0 0 22 22" fill="none" xmlns="http://www.w3.org/2000/svg">
<path fill-rule="evenodd" clip-rule="evenodd" d="M4.88889 22H2.44444C1.77222 22 1.19676 21.7606 0.718056 21.2819C0.239352 20.8032 0 20.2278 0 19.5556V11C0 9.47222 0.290278 8.0412 0.870833 6.70694C1.45139 5.37269 2.23565 4.21157 3.22361 3.22361C4.21157 2.23565 5.37269 1.45139 6.70694 0.870833C8.0412 0.290278 9.47222 0 11 0C12.5278 0 13.9588 0.290278 15.2931 0.870833C16.6273 1.45139 17.7884 2.23565 18.7764 3.22361C19.7644 4.21157 20.5486 5.37269 21.1292 6.70694C21.7097 8.0412 22 9.47222 22 11V19.5556C22 20.2278 21.7606 20.8032 21.2819 21.2819C20.8032 21.7606 20.2278 22 19.5556 22H17.1111C16.4389 22 15.8634 21.7606 15.3847 21.2819C14.906 20.8032 14.6667 20.2278 14.6667 19.5556V14.6667C14.6667 13.9944 14.906 13.419 15.3847 12.9403C15.8634 12.4616 16.4389 12.2222 17.1111 12.2222H19.5556V11C19.5556 8.61667 18.7255 6.59491 17.0653 4.93472C15.4051 3.27454 13.3833 2.44444 11 2.44444C8.61667 2.44444 6.59491 3.27454 4.93472 4.93472C3.27454 6.59491 2.44444 8.61667 2.44444 11V12.2222H4.88889C5.56111 12.2222 6.13657 12.4616 6.61528 12.9403C7.09398 13.419 7.33333 13.9944 7.33333 14.6667V19.5556C7.33333 20.2278 7.09398 20.8032 6.61528 21.2819C6.13657 21.7606 5.56111 22 4.88889 22ZM4.88878 14.668H2.44434V14.7135V19.5569H4.88878V14.7135V14.668ZM17.1113 14.7135V14.668H19.5558V14.7135V19.5569H17.1113V14.7135Z" fill="black"/>
</svg>
