<svg width="225" height="219" viewBox="0 0 225 219" fill="none" xmlns="http://www.w3.org/2000/svg">
<path d="M51.1017 9.51188L161.391 23.0935C179.304 25.3004 192.02 41.5903 189.813 59.5033L176.229 169.789C174.025 187.702 157.735 200.419 139.822 198.212L29.5335 184.63C11.6205 182.424 -1.09676 166.133 1.11017 148.22L14.6951 37.9351C16.8987 20.0222 33.225 7.30822 51.1017 9.51188Z" fill="#8B57E8"/>
<path d="M187.944 18.6618L187.528 0L198.589 16.2371L214.411 10.2035L203.086 24.9627L210.39 38.5377L196.343 32.2071L179.307 47.9989L185.605 27.4468L168.569 19.8725L187.944 18.6618Z" fill="#61CCFF"/>
<path d="M188.75 218.902C196.443 218.902 202.677 212.664 202.677 204.971C202.677 197.278 196.443 191.043 188.75 191.043C181.057 191.043 174.818 197.278 174.818 204.971C174.818 212.664 181.057 218.902 188.75 218.902Z" fill="#61CCFF"/>
<path fill-rule="evenodd" clip-rule="evenodd" d="M212.926 151.546C218.963 151.546 223.855 146.655 223.855 140.617C223.855 134.584 218.963 129.691 212.926 129.691C206.893 129.691 202 134.584 202 140.617C202 146.655 206.893 151.546 212.926 151.546Z" stroke="#FFC930" stroke-width="1.69916" stroke-linecap="round" stroke-linejoin="round"/>
</svg>
