<svg width="418" height="172" viewBox="0 0 418 172" fill="none" xmlns="http://www.w3.org/2000/svg">
<g opacity="0.553781">
<g filter="url(#filter0_f_2558_8852)">
<path d="M208.704 130C300.772 130 375.408 110.301 375.408 86C375.408 61.6995 300.772 42 208.704 42C116.636 42 42 61.6995 42 86C42 110.301 116.636 130 208.704 130Z" fill="#D6DFFE"/>
</g>
</g>
<path d="M89 93.6869H110.25C119.841 93.6869 118.863 80.6967 129.3 80.6967C141 80.6967 140 105.448 152.35 105.448C169 105.448 160.8 71.7896 175.4 71.6448C190 71.5 183.4 113 198.95 113C214.5 113 207 60 223.5 60C240 60 230 103.448 246.5 103.448C257.5 103.448 258.563 80.7118 269 80.7118C279.437 80.7118 280.909 103.448 290.5 103.448C297.5 103.448 298.837 92.8672 308.7 92.7745H329" stroke="url(#paint0_linear_2558_8852)" stroke-width="3"/>
<path d="M290.214 97.622C289.803 97.622 289.486 97.51 289.262 97.286C289.038 97.0527 288.926 96.726 288.926 96.306V88.816C288.926 88.3867 289.038 88.06 289.262 87.836C289.486 87.612 289.803 87.5 290.214 87.5C290.634 87.5 290.951 87.612 291.166 87.836C291.39 88.06 291.502 88.3867 291.502 88.816V96.306C291.502 96.726 291.394 97.0527 291.18 97.286C290.965 97.51 290.643 97.622 290.214 97.622Z" fill="black"/>
<path d="M265.11 97.622C264.821 97.622 264.578 97.5567 264.382 97.426C264.186 97.286 264.065 97.0993 264.018 96.866C263.972 96.6233 264.014 96.3527 264.144 96.054L267.63 88.55C267.798 88.186 268.004 87.92 268.246 87.752C268.498 87.584 268.783 87.5 269.1 87.5C269.418 87.5 269.693 87.584 269.926 87.752C270.169 87.92 270.379 88.186 270.556 88.55L274.042 96.054C274.192 96.3527 274.243 96.6233 274.196 96.866C274.159 97.1087 274.042 97.2953 273.846 97.426C273.66 97.5567 273.426 97.622 273.146 97.622C272.773 97.622 272.484 97.538 272.278 97.37C272.082 97.202 271.905 96.9313 271.746 96.558L270.99 94.78L271.97 95.494H266.202L267.196 94.78L266.44 96.558C266.272 96.9313 266.1 97.202 265.922 97.37C265.745 97.538 265.474 97.622 265.11 97.622ZM269.072 90.314L267.448 94.192L267.056 93.52H271.13L270.738 94.192L269.1 90.314H269.072Z" fill="black"/>
<path d="M246.618 94.5793C246.198 94.5793 245.862 94.4533 245.61 94.2013C245.367 93.9493 245.246 93.6179 245.246 93.2073C245.246 92.8059 245.367 92.4839 245.61 92.2413C245.862 91.9893 246.198 91.8633 246.618 91.8633C247.057 91.8633 247.393 91.9893 247.626 92.2413C247.869 92.4839 247.99 92.8059 247.99 93.2073C247.99 93.6179 247.869 93.9493 247.626 94.2013C247.393 94.4533 247.057 94.5793 246.618 94.5793Z" fill="black"/>
<path d="M220.204 97.622C219.812 97.622 219.513 97.5193 219.308 97.314C219.103 97.1087 219 96.8053 219 96.404V88.774C219 88.3633 219.103 88.0507 219.308 87.836C219.513 87.612 219.784 87.5 220.12 87.5C220.419 87.5 220.652 87.556 220.82 87.668C220.988 87.78 221.175 87.9667 221.38 88.228L225.818 93.772H225.426V88.704C225.426 88.312 225.524 88.0133 225.72 87.808C225.925 87.6027 226.224 87.5 226.616 87.5C227.008 87.5 227.302 87.6027 227.498 87.808C227.703 88.0133 227.806 88.312 227.806 88.704V96.46C227.806 96.8147 227.713 97.0993 227.526 97.314C227.339 97.5193 227.087 97.622 226.77 97.622C226.453 97.622 226.201 97.566 226.014 97.454C225.837 97.3327 225.645 97.146 225.44 96.894L221.002 91.336H221.394V96.404C221.394 96.8053 221.291 97.1087 221.086 97.314C220.89 97.5193 220.596 97.622 220.204 97.622Z" fill="black"/>
<path d="M195.11 97.622C194.821 97.622 194.578 97.5567 194.382 97.426C194.186 97.286 194.065 97.0993 194.018 96.866C193.972 96.6233 194.014 96.3527 194.144 96.054L197.63 88.55C197.798 88.186 198.004 87.92 198.246 87.752C198.498 87.584 198.783 87.5 199.1 87.5C199.418 87.5 199.693 87.584 199.926 87.752C200.169 87.92 200.379 88.186 200.556 88.55L204.042 96.054C204.192 96.3527 204.243 96.6233 204.196 96.866C204.159 97.1087 204.042 97.2953 203.846 97.426C203.66 97.5567 203.426 97.622 203.146 97.622C202.773 97.622 202.484 97.538 202.278 97.37C202.082 97.202 201.905 96.9313 201.746 96.558L200.99 94.78L201.97 95.494H196.202L197.196 94.78L196.44 96.558C196.272 96.9313 196.1 97.202 195.922 97.37C195.745 97.538 195.474 97.622 195.11 97.622ZM199.072 90.314L197.448 94.192L197.056 93.52H201.13L200.738 94.192L199.1 90.314H199.072Z" fill="black"/>
<path d="M170.693 97.622C170.32 97.622 170.031 97.5193 169.825 97.314C169.629 97.1087 169.531 96.8193 169.531 96.446V88.676C169.531 88.2933 169.639 88.004 169.853 87.808C170.068 87.6027 170.371 87.5 170.763 87.5C171.09 87.5 171.347 87.5653 171.533 87.696C171.729 87.8173 171.907 88.0227 172.065 88.312L175.075 93.716H174.585L177.581 88.312C177.749 88.0227 177.927 87.8173 178.113 87.696C178.309 87.5653 178.571 87.5 178.897 87.5C179.271 87.5 179.555 87.6027 179.751 87.808C179.957 88.004 180.059 88.2933 180.059 88.676V96.446C180.059 96.8193 179.961 97.1087 179.765 97.314C179.569 97.5193 179.28 97.622 178.897 97.622C178.524 97.622 178.235 97.5193 178.029 97.314C177.833 97.1087 177.735 96.8193 177.735 96.446V91.63H178.029L175.775 95.55C175.645 95.7553 175.505 95.9093 175.355 96.012C175.215 96.1147 175.024 96.166 174.781 96.166C174.548 96.166 174.357 96.1147 174.207 96.012C174.058 95.9093 173.923 95.7553 173.801 95.55L171.533 91.616H171.855V96.446C171.855 96.8193 171.757 97.1087 171.561 97.314C171.365 97.5193 171.076 97.622 170.693 97.622Z" fill="black"/>
<path d="M149.344 97.495C148.905 97.495 148.569 97.383 148.336 97.159C148.112 96.9257 148 96.5943 148 96.165V88.955C148 88.5257 148.112 88.199 148.336 87.975C148.569 87.7417 148.905 87.625 149.344 87.625H152.088C153.805 87.625 155.131 88.0543 156.064 88.913C157.007 89.7717 157.478 90.985 157.478 92.553C157.478 93.337 157.357 94.037 157.114 94.653C156.871 95.2597 156.521 95.7777 156.064 96.207C155.607 96.627 155.042 96.949 154.37 97.173C153.707 97.3877 152.947 97.495 152.088 97.495H149.344ZM150.576 95.409H151.92C152.415 95.409 152.839 95.3483 153.194 95.227C153.558 95.1057 153.857 94.9283 154.09 94.695C154.333 94.4617 154.51 94.1677 154.622 93.813C154.743 93.4583 154.804 93.0383 154.804 92.553C154.804 91.5823 154.566 90.8683 154.09 90.411C153.614 89.9443 152.891 89.711 151.92 89.711H150.576V95.409Z" fill="black"/>
<path d="M126.239 97.495C125.8 97.495 125.464 97.383 125.231 97.159C125.007 96.9257 124.895 96.5943 124.895 96.165V88.955C124.895 88.5257 125.007 88.199 125.231 87.975C125.464 87.7417 125.8 87.625 126.239 87.625H130.985C131.321 87.625 131.573 87.709 131.741 87.877C131.909 88.045 131.993 88.2877 131.993 88.605C131.993 88.9317 131.909 89.1837 131.741 89.361C131.573 89.529 131.321 89.613 130.985 89.613H127.359V91.489H130.677C131.003 91.489 131.251 91.573 131.419 91.741C131.596 91.909 131.685 92.1563 131.685 92.483C131.685 92.8097 131.596 93.057 131.419 93.225C131.251 93.393 131.003 93.477 130.677 93.477H127.359V95.507H130.985C131.321 95.507 131.573 95.5957 131.741 95.773C131.909 95.941 131.993 96.1837 131.993 96.501C131.993 96.8277 131.909 97.075 131.741 97.243C131.573 97.411 131.321 97.495 130.985 97.495H126.239Z" fill="black"/>
<defs>
<filter id="filter0_f_2558_8852" x="0" y="0" width="417.41" height="172" filterUnits="userSpaceOnUse" color-interpolation-filters="sRGB">
<feFlood flood-opacity="0" result="BackgroundImageFix"/>
<feBlend mode="normal" in="SourceGraphic" in2="BackgroundImageFix" result="shape"/>
<feGaussianBlur stdDeviation="21" result="effect1_foregroundBlur_2558_8852"/>
</filter>
<linearGradient id="paint0_linear_2558_8852" x1="221.671" y1="90.2992" x2="221.671" y2="116.754" gradientUnits="userSpaceOnUse">
<stop stop-color="#678DF8"/>
<stop offset="0.8" stop-color="#AB86EC"/>
</linearGradient>
</defs>
</svg>
