<svg width="339" height="152" viewBox="0 0 339 152" fill="none" xmlns="http://www.w3.org/2000/svg">
<g opacity="0.553781">
<g filter="url(#filter0_f_2558_8852)">
<path d="M169.5 110C239.916 110 297 94.7777 297 76C297 57.2223 239.916 42 169.5 42C99.0837 42 42 57.2223 42 76C42 94.7777 99.0837 110 169.5 110Z" fill="#D6DFFE"/>
</g>
</g>
<path d="M50 83.6869H71.25C80.8407 83.6869 79.8631 70.6967 90.3 70.6967C102 70.6967 101 95.4481 113.35 95.4481C130 95.4481 121.8 61.7896 136.4 61.6448C151 61.5 144.4 103 159.95 103C175.5 103 168 50 184.5 50C201 50 191 93.4481 207.5 93.4481C218.5 93.4481 219.563 70.7118 230 70.7118C240.437 70.7118 241.909 93.4481 251.5 93.4481C258.5 93.4481 259.837 82.8672 269.7 82.7745H290" stroke="url(#paint0_linear_2558_8852)" stroke-width="3"/>
<path d="M251.214 87.622C250.803 87.622 250.486 87.51 250.262 87.286C250.038 87.0527 249.926 86.726 249.926 86.306V78.816C249.926 78.3867 250.038 78.06 250.262 77.836C250.486 77.612 250.803 77.5 251.214 77.5C251.634 77.5 251.951 77.612 252.166 77.836C252.39 78.06 252.502 78.3867 252.502 78.816V86.306C252.502 86.726 252.394 87.0527 252.18 87.286C251.965 87.51 251.643 87.622 251.214 87.622Z" fill="black"/>
<path d="M226.11 87.622C225.821 87.622 225.578 87.5567 225.382 87.426C225.186 87.286 225.065 87.0993 225.018 86.866C224.972 86.6233 225.014 86.3527 225.144 86.054L228.63 78.55C228.798 78.186 229.004 77.92 229.246 77.752C229.498 77.584 229.783 77.5 230.1 77.5C230.418 77.5 230.693 77.584 230.926 77.752C231.169 77.92 231.379 78.186 231.556 78.55L235.042 86.054C235.192 86.3527 235.243 86.6233 235.196 86.866C235.159 87.1087 235.042 87.2953 234.846 87.426C234.66 87.5567 234.426 87.622 234.146 87.622C233.773 87.622 233.484 87.538 233.278 87.37C233.082 87.202 232.905 86.9313 232.746 86.558L231.99 84.78L232.97 85.494H227.202L228.196 84.78L227.44 86.558C227.272 86.9313 227.1 87.202 226.922 87.37C226.745 87.538 226.474 87.622 226.11 87.622ZM230.072 80.314L228.448 84.192L228.056 83.52H232.13L231.738 84.192L230.1 80.314H230.072Z" fill="black"/>
<path d="M207.618 84.5793C207.198 84.5793 206.862 84.4533 206.61 84.2013C206.367 83.9493 206.246 83.6179 206.246 83.2073C206.246 82.8059 206.367 82.4839 206.61 82.2413C206.862 81.9893 207.198 81.8633 207.618 81.8633C208.057 81.8633 208.393 81.9893 208.626 82.2413C208.869 82.4839 208.99 82.8059 208.99 83.2073C208.99 83.6179 208.869 83.9493 208.626 84.2013C208.393 84.4533 208.057 84.5793 207.618 84.5793Z" fill="black"/>
<path d="M181.204 87.622C180.812 87.622 180.513 87.5193 180.308 87.314C180.103 87.1087 180 86.8053 180 86.404V78.774C180 78.3633 180.103 78.0507 180.308 77.836C180.513 77.612 180.784 77.5 181.12 77.5C181.419 77.5 181.652 77.556 181.82 77.668C181.988 77.78 182.175 77.9667 182.38 78.228L186.818 83.772H186.426V78.704C186.426 78.312 186.524 78.0133 186.72 77.808C186.925 77.6027 187.224 77.5 187.616 77.5C188.008 77.5 188.302 77.6027 188.498 77.808C188.703 78.0133 188.806 78.312 188.806 78.704V86.46C188.806 86.8147 188.713 87.0993 188.526 87.314C188.339 87.5193 188.087 87.622 187.77 87.622C187.453 87.622 187.201 87.566 187.014 87.454C186.837 87.3327 186.645 87.146 186.44 86.894L182.002 81.336H182.394V86.404C182.394 86.8053 182.291 87.1087 182.086 87.314C181.89 87.5193 181.596 87.622 181.204 87.622Z" fill="black"/>
<path d="M156.11 87.622C155.821 87.622 155.578 87.5567 155.382 87.426C155.186 87.286 155.065 87.0993 155.018 86.866C154.972 86.6233 155.014 86.3527 155.144 86.054L158.63 78.55C158.798 78.186 159.004 77.92 159.246 77.752C159.498 77.584 159.783 77.5 160.1 77.5C160.418 77.5 160.693 77.584 160.926 77.752C161.169 77.92 161.379 78.186 161.556 78.55L165.042 86.054C165.192 86.3527 165.243 86.6233 165.196 86.866C165.159 87.1087 165.042 87.2953 164.846 87.426C164.66 87.5567 164.426 87.622 164.146 87.622C163.773 87.622 163.484 87.538 163.278 87.37C163.082 87.202 162.905 86.9313 162.746 86.558L161.99 84.78L162.97 85.494H157.202L158.196 84.78L157.44 86.558C157.272 86.9313 157.1 87.202 156.922 87.37C156.745 87.538 156.474 87.622 156.11 87.622ZM160.072 80.314L158.448 84.192L158.056 83.52H162.13L161.738 84.192L160.1 80.314H160.072Z" fill="black"/>
<path d="M131.693 87.622C131.32 87.622 131.031 87.5193 130.825 87.314C130.629 87.1087 130.531 86.8193 130.531 86.446V78.676C130.531 78.2933 130.639 78.004 130.853 77.808C131.068 77.6027 131.371 77.5 131.763 77.5C132.09 77.5 132.347 77.5653 132.533 77.696C132.729 77.8173 132.907 78.0227 133.065 78.312L136.075 83.716H135.585L138.581 78.312C138.749 78.0227 138.927 77.8173 139.113 77.696C139.309 77.5653 139.571 77.5 139.897 77.5C140.271 77.5 140.555 77.6027 140.751 77.808C140.957 78.004 141.059 78.2933 141.059 78.676V86.446C141.059 86.8193 140.961 87.1087 140.765 87.314C140.569 87.5193 140.28 87.622 139.897 87.622C139.524 87.622 139.235 87.5193 139.029 87.314C138.833 87.1087 138.735 86.8193 138.735 86.446V81.63H139.029L136.775 85.55C136.645 85.7553 136.505 85.9093 136.355 86.012C136.215 86.1147 136.024 86.166 135.781 86.166C135.548 86.166 135.357 86.1147 135.207 86.012C135.058 85.9093 134.923 85.7553 134.801 85.55L132.533 81.616H132.855V86.446C132.855 86.8193 132.757 87.1087 132.561 87.314C132.365 87.5193 132.076 87.622 131.693 87.622Z" fill="black"/>
<path d="M110.344 87.495C109.905 87.495 109.569 87.383 109.336 87.159C109.112 86.9257 109 86.5943 109 86.165V78.955C109 78.5257 109.112 78.199 109.336 77.975C109.569 77.7417 109.905 77.625 110.344 77.625H113.088C114.805 77.625 116.131 78.0543 117.064 78.913C118.007 79.7717 118.478 80.985 118.478 82.553C118.478 83.337 118.357 84.037 118.114 84.653C117.871 85.2597 117.521 85.7777 117.064 86.207C116.607 86.627 116.042 86.949 115.37 87.173C114.707 87.3877 113.947 87.495 113.088 87.495H110.344ZM111.576 85.409H112.92C113.415 85.409 113.839 85.3483 114.194 85.227C114.558 85.1057 114.857 84.9283 115.09 84.695C115.333 84.4617 115.51 84.1677 115.622 83.813C115.743 83.4583 115.804 83.0383 115.804 82.553C115.804 81.5823 115.566 80.8683 115.09 80.411C114.614 79.9443 113.891 79.711 112.92 79.711H111.576V85.409Z" fill="black"/>
<path d="M87.2385 87.495C86.7999 87.495 86.4639 87.383 86.2305 87.159C86.0065 86.9257 85.8945 86.5943 85.8945 86.165V78.955C85.8945 78.5257 86.0065 78.199 86.2305 77.975C86.4639 77.7417 86.7999 77.625 87.2385 77.625H91.9845C92.3205 77.625 92.5725 77.709 92.7405 77.877C92.9085 78.045 92.9925 78.2877 92.9925 78.605C92.9925 78.9317 92.9085 79.1837 92.7405 79.361C92.5725 79.529 92.3205 79.613 91.9845 79.613H88.3585V81.489H91.6765C92.0032 81.489 92.2505 81.573 92.4185 81.741C92.5959 81.909 92.6845 82.1563 92.6845 82.483C92.6845 82.8097 92.5959 83.057 92.4185 83.225C92.2505 83.393 92.0032 83.477 91.6765 83.477H88.3585V85.507H91.9845C92.3205 85.507 92.5725 85.5957 92.7405 85.773C92.9085 85.941 92.9925 86.1837 92.9925 86.501C92.9925 86.8277 92.9085 87.075 92.7405 87.243C92.5725 87.411 92.3205 87.495 91.9845 87.495H87.2385Z" fill="black"/>
<defs>
<filter id="filter0_f_2558_8852" x="0" y="0" width="339" height="152" filterUnits="userSpaceOnUse" color-interpolation-filters="sRGB">
<feFlood flood-opacity="0" result="BackgroundImageFix"/>
<feBlend mode="normal" in="SourceGraphic" in2="BackgroundImageFix" result="shape"/>
<feGaussianBlur stdDeviation="21" result="effect1_foregroundBlur_2558_8852"/>
</filter>
<linearGradient id="paint0_linear_2558_8852" x1="182.671" y1="80.2992" x2="182.671" y2="106.754" gradientUnits="userSpaceOnUse">
<stop stop-color="#678DF8"/>
<stop offset="0.8" stop-color="#AB86EC"/>
</linearGradient>
</defs>
</svg>
