<svg width="1280" height="836" viewBox="0 0 1280 836" fill="none" xmlns="http://www.w3.org/2000/svg">
<path opacity="0.086356" d="M-596.8 279.434C-870.04 279.434 -929.11 411.185 -1180.2 411.185C-1431.28 411.185 -1490.36 238.545 -1763.6 238.545C-2036.84 238.545 -2095.92 418 -2347 418C-2095.92 418 -2036.84 597.455 -1763.6 597.455C-1490.36 597.455 -1431.28 424.815 -1180.2 424.815C-929.11 424.815 -870.04 556.566 -596.8 556.566C-323.56 556.566 -264.48 424.815 -13.3999 424.815C237.69 424.815 296.77 722.741 570 722.741C843.24 722.741 902.32 424.815 1153.4 424.815C1404.49 424.815 1463.57 479.333 1736.81 479.333C2010.04 479.333 2069.12 424.815 2320.21 424.815C2571.29 424.815 2548.72 833 2676.6 833C2804.48 833 2781.92 418 3033 418C2781.92 418 2804.48 3 2676.6 3C2548.72 3 2571.29 411.185 2320.21 411.185C2069.12 411.185 2010.04 356.667 1736.81 356.667C1463.57 356.667 1404.49 411.185 1153.4 411.185C902.32 411.185 843.24 113.259 570 113.259C296.77 113.259 237.69 411.185 -13.3999 411.185C-264.48 411.185 -323.56 279.434 -596.8 279.434Z" stroke="url(#paint0_linear_4661_4231)" stroke-width="2"/>
<path opacity="0.3" d="M1753.59 326.179C2139.58 326.179 2223.04 413.484 2577.73 413.484C2932.42 413.484 3015.88 299.084 3401.86 299.084C3787.85 299.084 3871.31 418 4226 418C3871.31 418 3787.85 536.916 3401.86 536.916C3015.88 536.916 2932.42 422.516 2577.73 422.516C2223.04 422.516 2139.58 509.821 1753.59 509.821C1367.61 509.821 1284.15 422.516 929.46 422.516C574.77 422.516 491.31 619.937 105.32 619.937C-280.66 619.937 -364.12 422.516 -718.81 422.516C-1073.5 422.516 -1156.96 458.642 -1542.95 458.642C-1928.93 458.642 -2012.39 422.516 -2367.08 422.516C-2721.77 422.516 -2689.89 693 -2870.54 693C-3051.19 693 -3019.31 418 -3374 418C-3019.31 418 -3051.19 143 -2870.54 143C-2689.89 143 -2721.77 413.484 -2367.08 413.484C-2012.39 413.484 -1928.93 377.358 -1542.95 377.358C-1156.96 377.358 -1073.5 413.484 -718.81 413.484C-364.12 413.484 -280.66 216.063 105.32 216.063C491.31 216.063 574.77 413.484 929.46 413.484C1284.15 413.484 1367.61 326.179 1753.59 326.179Z" fill="url(#paint1_linear_4661_4231)" stroke="url(#paint2_linear_4661_4231)" stroke-width="5"/>
<g opacity="0.3">
<path d="M2244.29 411.167C1866.27 411.167 1777.32 279.416 1365.94 279.416C954.56 279.416 865.61 411.167 487.58 411.167C109.56 411.167 20.6099 113.241 -390.77 113.241C-802.15 113.241 -891.1 411.167 -1269.13 411.167C-1647.15 411.167 -1736.1 356.649 -2147.48 356.649C-2558.86 356.649 -2647.81 411.167 -3025.83 411.167C-3035.24 411.167 -3044 410.915 -3052.16 410.423C-2908.7 377.116 -2960.26 240.665 -2989.68 134.743C-2922.48 61.788 -2874.35 3 -2947.42 3C-3019.76 3 -3010 61.591 -2989.68 134.743C-3095.15 249.241 -3247.58 398.631 -3052.16 410.423C-3073.31 415.332 -3098.69 418 -3129 418C-3098.75 418 -3073.4 420.658 -3052.28 425.549C-3247.52 437.396 -3095.13 586.764 -2989.68 701.248C-3010 774.404 -3019.76 833 -2947.42 833C-2874.35 833 -2922.48 774.208 -2989.68 701.248C-2960.25 595.297 -2908.67 458.806 -3052.28 425.549C-3044.09 425.052 -3035.28 424.797 -3025.83 424.797C-2647.81 424.797 -2558.86 479.315 -2147.48 479.315C-1736.1 479.315 -1647.15 424.797 -1269.13 424.797C-891.1 424.797 -802.15 722.723 -390.77 722.723C20.6099 722.723 109.56 424.797 487.58 424.797C865.61 424.797 954.56 556.548 1365.94 556.548C1777.32 556.548 1866.27 424.797 2244.29 424.797C2622.32 424.797 2711.26 597.437 3122.65 597.437C3534.03 597.437 3622.97 417.982 4001 417.982C3622.97 417.982 3534.03 238.527 3122.65 238.527C2711.26 238.527 2622.32 411.167 2244.29 411.167Z" fill="url(#paint3_linear_4661_4231)"/>
<path fill-rule="evenodd" clip-rule="evenodd" d="M2244.29 411.167C1866.27 411.167 1777.32 279.416 1365.94 279.416C954.56 279.416 865.61 411.167 487.58 411.167C109.56 411.167 20.6097 113.241 -390.77 113.241C-802.15 113.241 -891.1 411.167 -1269.13 411.167C-1647.15 411.167 -1736.1 356.649 -2147.48 356.649C-2558.86 356.649 -2647.81 411.167 -3025.84 411.167C-3403.86 411.167 -2754.89 3 -2947.42 3C-3139.95 3 -2750.97 418 -3129 418C-2750.97 418 -3139.95 833 -2947.42 833C-2754.89 833 -3403.86 424.797 -3025.84 424.797C-2647.81 424.797 -2558.86 479.315 -2147.48 479.315C-1736.1 479.315 -1647.15 424.797 -1269.13 424.797C-891.1 424.797 -802.15 722.723 -390.77 722.723C20.6097 722.723 109.56 424.797 487.58 424.797C865.61 424.797 954.56 556.548 1365.94 556.548C1777.32 556.548 1866.27 424.797 2244.29 424.797C2622.32 424.797 2711.26 597.437 3122.65 597.437C3534.03 597.437 3622.97 417.982 4001 417.982C3622.97 417.982 3534.03 238.527 3122.65 238.527C2711.26 238.527 2622.32 411.167 2244.29 411.167Z" stroke="url(#paint4_linear_4661_4231)" stroke-width="5"/>
</g>
<path opacity="0.7" d="M-513.8 279.434C-787.04 279.434 -846.11 411.185 -1097.2 411.185C-1348.28 411.185 -1407.36 238.545 -1680.6 238.545C-1953.84 238.545 -2012.92 418 -2264 418C-2012.92 418 -1953.84 597.455 -1680.6 597.455C-1407.36 597.455 -1348.28 424.815 -1097.2 424.815C-846.11 424.815 -787.04 556.566 -513.8 556.566C-240.56 556.566 -181.48 424.815 69.6001 424.815C320.69 424.815 379.77 722.741 653 722.741C926.24 722.741 985.32 424.815 1236.4 424.815C1487.49 424.815 1546.57 479.333 1819.81 479.333C2093.04 479.333 2152.12 424.815 2403.21 424.815C2654.29 424.815 2631.72 833 2759.6 833C2887.48 833 2864.92 418 3116 418C2864.92 418 2887.48 3 2759.6 3C2631.72 3 2654.29 411.185 2403.21 411.185C2152.12 411.185 2093.04 356.667 1819.81 356.667C1546.57 356.667 1487.49 411.185 1236.4 411.185C985.32 411.185 926.24 113.259 653 113.259C379.77 113.259 320.69 411.185 69.6001 411.185C-181.48 411.185 -240.56 279.434 -513.8 279.434Z" fill="url(#paint5_linear_4661_4231)"/>
<defs>
<linearGradient id="paint0_linear_4661_4231" x1="-1439.4" y1="103" x2="-1439.4" y2="723" gradientUnits="userSpaceOnUse">
<stop stop-color="#B3B3B3"/>
<stop offset="1"/>
</linearGradient>
<linearGradient id="paint1_linear_4661_4231" x1="-3374" y1="143" x2="-3374" y2="693" gradientUnits="userSpaceOnUse">
<stop stop-color="#D6B7FF"/>
<stop offset="1" stop-color="white"/>
</linearGradient>
<linearGradient id="paint2_linear_4661_4231" x1="-2733.22" y1="209.265" x2="-2733.22" y2="620.108" gradientUnits="userSpaceOnUse">
<stop stop-color="#D6B7FF"/>
<stop offset="1" stop-color="white"/>
</linearGradient>
<linearGradient id="paint3_linear_4661_4231" x1="-3622.72" y1="3" x2="-3622.72" y2="833" gradientUnits="userSpaceOnUse">
<stop stop-color="#FFB1B1"/>
<stop offset="1" stop-color="white"/>
</linearGradient>
<linearGradient id="paint4_linear_4661_4231" x1="-3060.3" y1="103" x2="-3060.3" y2="723" gradientUnits="userSpaceOnUse">
<stop stop-color="#FFB1B1"/>
<stop offset="1" stop-color="white"/>
</linearGradient>
<linearGradient id="paint5_linear_4661_4231" x1="-2264" y1="3" x2="-2264" y2="833" gradientUnits="userSpaceOnUse">
<stop stop-color="#4973FF"/>
<stop offset="1" stop-color="white"/>
</linearGradient>
</defs>
</svg>
